<svg width="16" height="16" viewBox="0 0 16 16" fill="none" xmlns="http://www.w3.org/2000/svg">
<path d="M8 2H3.33333C2.97971 2 2.64057 2.14048 2.39052 2.39052C2.14048 2.64057 2 2.97971 2 3.33333V12.6667C2 13.0203 2.14048 13.3594 2.39052 13.6095C2.64057 13.8595 2.97971 14 3.33333 14H12.6667C13.0203 14 13.3594 13.8595 13.6095 13.6095C13.8595 13.3594 14 13.0203 14 12.6667V8" stroke="white" stroke-width="1.33333" stroke-linecap="round" stroke-linejoin="round"/>
<path d="M12.2494 1.75003C12.5146 1.48481 12.8743 1.33582 13.2494 1.33582C13.6245 1.33582 13.9842 1.48481 14.2494 1.75003C14.5146 2.01525 14.6636 2.37496 14.6636 2.75003C14.6636 3.1251 14.5146 3.48481 14.2494 3.75003L8.24075 9.75936C8.08244 9.91753 7.88688 10.0333 7.67208 10.096L5.75674 10.656C5.69938 10.6728 5.63857 10.6738 5.58068 10.6589C5.5228 10.6441 5.46996 10.614 5.42771 10.5717C5.38546 10.5295 5.35534 10.4766 5.34051 10.4188C5.32568 10.3609 5.32668 10.3001 5.34341 10.2427L5.90341 8.32736C5.96643 8.11273 6.08243 7.9174 6.24075 7.75936L12.2494 1.75003Z" stroke="white" stroke-width="1.33333" stroke-linecap="round" stroke-linejoin="round"/>
</svg>
